<svg width="200" height="200" viewBox="0 0 200 200" fill="none" xmlns="http://www.w3.org/2000/svg">
<g clip-path="url(#clip0_1_43)">
<mask id="mask0_1_43" style="mask-type:luminance" maskUnits="userSpaceOnUse" x="0" y="0" width="200" height="200">
<path d="M0 0H200V200H0V0Z" fill="white"/>
</mask>
<g mask="url(#mask0_1_43)">
<path d="M1.90002 69.75C1.90002 69.75 -2.96664 66.1917 2.87502 61.4583L16.5 49.1417C16.5 49.1417 20.3917 45 24.5167 48.6083L150.192 144.792V190.908C150.192 190.908 150.133 198.158 140.942 197.358L1.90002 69.75Z" fill="white"/>
<path d="M34.3 99.475L1.9 129.242C1.9 129.242 -1.43333 131.742 1.9 136.217L16.9417 150.05C16.9417 150.05 20.5167 153.925 25.7917 149.508L60.1333 123.192L34.3 99.475ZM91.1667 99.7167L150.583 53.8667L150.192 7.99169C150.192 7.99169 147.65 -2.02498 139.192 3.19169L60.1333 75.9167L91.1667 99.7167Z" fill="white"/>
<path d="M140.933 197.417C144.383 200.983 148.567 199.817 148.567 199.817L194.867 176.758C200.792 172.675 199.958 167.608 199.958 167.608V29.9C199.958 23.85 193.833 21.7583 193.833 21.7583L153.7 2.20001C144.933 -3.27499 139.192 3.19167 139.192 3.19167C139.192 3.19167 146.575 -2.18333 150.192 7.99167V190.075C150.192 191.325 149.925 192.55 149.4 193.658C148.342 195.817 146.05 197.825 140.55 196.992L140.933 197.417Z" fill="white"/>
</g>
</g>
<defs>
<clipPath id="clip0_1_43">
<rect width="200" height="200" fill="white"/>
</clipPath>
</defs>
</svg>
