<svg width="255" height="75" viewBox="0 0 255 75" fill="none" xmlns="http://www.w3.org/2000/svg">
<path d="M73.4161 0H0V73.9318H73.4161V0Z" fill="#030712"/>
<path d="M63.5515 10.2765H10.2717V63.5814H63.5515V10.2765Z" fill="#030712"/>
<path d="M19.2502 55.269V19.0424H27.0094V48.0236H44.8556V55.269H19.2502Z" fill="#F9FAFB"/>
<path d="M50.989 47.6122H50.8412C48.8414 47.6122 47.2203 49.2341 47.2203 51.2348C47.2203 53.2356 48.8414 54.8575 50.8412 54.8575H50.989C52.9888 54.8575 54.61 53.2356 54.61 51.2348C54.61 49.2341 52.9888 47.6122 50.989 47.6122Z" fill="#F9FAFB"/>
<path d="M90.5586 22.1081H96.234V43.3058H109.287V48.6052H90.5586V22.1081ZM121.028 49.1731C119.565 49.1731 118.19 48.908 116.904 48.3781C115.643 47.8482 114.545 47.129 113.612 46.2205C112.679 45.2868 111.947 44.2017 111.418 42.9651C110.888 41.7033 110.623 40.3659 110.623 38.9527C110.623 37.5395 110.888 36.2147 111.418 34.9781C111.947 33.7163 112.679 32.6312 113.612 31.7227C114.545 30.789 115.643 30.0572 116.904 29.5273C118.19 28.9973 119.565 28.7324 121.028 28.7324C122.541 28.7324 123.916 28.9973 125.152 29.5273C126.413 30.0572 127.497 30.789 128.406 31.7227C129.314 32.6564 130.008 33.7416 130.487 34.9781C130.991 36.2147 131.243 37.5395 131.243 38.9527V40.0883H116.109C116.21 40.694 116.399 41.2744 116.677 41.8295C116.98 42.3847 117.345 42.8767 117.774 43.3058C118.228 43.7096 118.733 44.0376 119.287 44.2899C119.842 44.5171 120.423 44.6306 121.028 44.6306C121.886 44.6306 122.579 44.5171 123.109 44.2899C123.664 44.0376 124.118 43.7727 124.471 43.495C124.849 43.167 125.152 42.7885 125.379 42.3595H131.055C130.651 43.6213 130.021 44.7568 129.163 45.7663C128.784 46.1953 128.342 46.6116 127.838 47.0153C127.333 47.4192 126.754 47.785 126.098 48.1131C125.442 48.4412 124.685 48.6936 123.828 48.8703C122.995 49.0721 122.062 49.1731 121.028 49.1731ZM125.568 36.8708C125.467 36.3913 125.291 35.9371 125.038 35.5081C124.786 35.079 124.458 34.7005 124.055 34.3725C123.676 34.0444 123.222 33.7795 122.693 33.5775C122.188 33.3756 121.633 33.2747 121.028 33.2747C119.792 33.2747 118.758 33.6407 117.925 34.3725C117.118 35.079 116.576 35.9118 116.298 36.8708H125.568ZM143.714 49.1731C142.251 49.1731 140.876 48.908 139.591 48.3781C138.329 47.8482 137.232 47.129 136.299 46.2205C135.365 45.2868 134.634 44.2017 134.104 42.9651C133.574 41.7033 133.31 40.3659 133.31 38.9527C133.31 37.5395 133.574 36.2147 134.104 34.9781C134.634 33.7163 135.365 32.6312 136.299 31.7227C137.232 30.789 138.329 30.0572 139.591 29.5273C140.876 28.9973 142.251 28.7324 143.714 28.7324C145.228 28.7324 146.602 28.9973 147.838 29.5273C149.1 30.0572 150.184 30.789 151.092 31.7227C152 32.6564 152.694 33.7416 153.173 34.9781C153.678 36.2147 153.929 37.5395 153.929 38.9527V40.0883H138.795C138.897 40.694 139.086 41.2744 139.363 41.8295C139.666 42.3847 140.032 42.8767 140.461 43.3058C140.915 43.7096 141.419 44.0376 141.974 44.2899C142.528 44.5171 143.109 44.6306 143.714 44.6306C144.571 44.6306 145.265 44.5171 145.795 44.2899C146.35 44.0376 146.804 43.7727 147.157 43.495C147.536 43.167 147.838 42.7885 148.065 42.3595H153.741C153.337 43.6213 152.707 44.7568 151.849 45.7663C151.471 46.1953 151.028 46.6116 150.524 47.0153C150.02 47.4192 149.44 47.785 148.785 48.1131C148.129 48.4412 147.372 48.6936 146.514 48.8703C145.682 49.0721 144.748 49.1731 143.714 49.1731ZM148.255 36.8708C148.153 36.3913 147.977 35.9371 147.725 35.5081C147.472 35.079 147.144 34.7005 146.742 34.3725C146.363 34.0444 145.909 33.7795 145.379 33.5775C144.875 33.3756 144.32 33.2747 143.714 33.2747C142.479 33.2747 141.444 33.6407 140.612 34.3725C139.804 35.079 139.263 35.9118 138.985 36.8708H148.255ZM165.076 49.1731C163.841 49.1731 162.68 48.9333 161.596 48.4538C160.536 47.9743 159.602 47.293 158.796 46.4098C157.989 45.5265 157.346 44.454 156.866 43.1923C156.412 41.9305 156.185 40.5173 156.185 38.9527C156.185 37.3881 156.412 35.975 156.866 34.7132C157.346 33.4514 157.989 32.3789 158.796 31.4957C159.602 30.6123 160.536 29.931 161.596 29.4516C162.68 28.9721 163.841 28.7324 165.076 28.7324C166.136 28.7324 167.032 28.8964 167.762 29.2245C168.519 29.5273 169.15 29.8679 169.654 30.2465C170.235 30.7007 170.726 31.2055 171.13 31.7606H171.32V22.1081H176.616V48.6052H171.32V46.1448H171.13C170.726 46.7 170.235 47.2046 169.654 47.6589C169.15 48.0374 168.519 48.3781 167.762 48.681C167.032 49.0089 166.136 49.1731 165.076 49.1731ZM166.4 44.6306C167.838 44.6306 169.011 44.1385 169.92 43.1544C170.852 42.1702 171.32 40.7696 171.32 38.9527C171.32 37.1357 170.852 35.7352 169.92 34.7509C169.011 33.7668 167.838 33.2747 166.4 33.2747C165.063 33.2747 163.941 33.7668 163.033 34.7509C162.126 35.7352 161.671 37.1357 161.671 38.9527C161.671 40.7696 162.126 42.1702 163.033 43.1544C163.941 44.1385 165.063 44.6306 166.4 44.6306ZM191.562 49.3623C190.249 49.3623 189.076 49.2235 188.042 48.9459C187.008 48.6936 186.088 48.3655 185.281 47.9617C184.473 47.5327 183.766 47.0532 183.162 46.5233C182.581 45.9681 182.089 45.4003 181.687 44.8199C180.702 43.4825 180.021 41.9684 179.643 40.2775H185.507C185.735 41.0347 186.101 41.7033 186.605 42.2837C187.033 42.7885 187.639 43.2427 188.421 43.6465C189.227 44.0503 190.274 44.2522 191.562 44.2522C193.352 44.2522 194.613 43.962 195.344 43.3815C196.101 42.8011 196.48 42.0819 196.48 41.2238C196.48 40.4164 196.089 39.7855 195.307 39.3313C194.55 38.877 193.579 38.4858 192.394 38.1577C191.234 37.8045 189.972 37.4638 188.61 37.1357C187.273 36.7824 186.012 36.3156 184.826 35.7352C183.666 35.1295 182.695 34.3472 181.913 33.3882C181.157 32.4041 180.778 31.1045 180.778 29.4894C180.778 28.4043 181.005 27.3697 181.459 26.3855C181.938 25.4012 182.606 24.5433 183.464 23.8115C184.347 23.0544 185.419 22.4614 186.68 22.0323C187.942 21.5781 189.38 21.351 190.994 21.351C192.23 21.351 193.326 21.4772 194.286 21.7295C195.244 21.9567 196.089 22.2595 196.82 22.6381C197.576 23.0165 198.221 23.4581 198.749 23.9629C199.304 24.4424 199.771 24.9345 200.149 25.4391C201.032 26.6504 201.639 28.0006 201.966 29.4894H196.101C195.95 28.9342 195.66 28.4296 195.231 27.9753C194.878 27.5967 194.361 27.256 193.68 26.9532C193.024 26.6253 192.128 26.4612 190.994 26.4612C189.48 26.4612 188.37 26.7514 187.665 27.3318C186.984 27.8869 186.643 28.5431 186.643 29.3001C186.643 29.9058 186.869 30.4105 187.324 30.8143C187.778 31.2181 188.37 31.5713 189.102 31.8741C189.834 32.1517 190.666 32.4041 191.598 32.6312C192.558 32.8584 193.516 33.1107 194.475 33.3882C195.458 33.6659 196.416 33.9939 197.35 34.3725C198.308 34.7509 199.153 35.2304 199.885 35.8109C200.617 36.3913 201.209 37.1105 201.663 37.9686C202.118 38.8013 202.344 39.8234 202.344 41.0347C202.344 42.1449 202.118 43.2048 201.663 44.2143C201.209 45.2237 200.528 46.107 199.62 46.8639C198.712 47.6211 197.576 48.2267 196.214 48.681C194.878 49.1352 193.326 49.3623 191.562 49.3623ZM215.214 49.1731C213.7 49.1731 212.289 48.908 210.976 48.3781C209.69 47.8482 208.567 47.129 207.609 46.2205C206.676 45.2868 205.945 44.2017 205.415 42.9651C204.885 41.7033 204.621 40.3659 204.621 38.9527C204.621 37.5395 204.885 36.2147 205.415 34.9781C205.945 33.7163 206.676 32.6312 207.609 31.7227C208.567 30.789 209.69 30.0572 210.976 29.5273C212.289 28.9973 213.7 28.7324 215.214 28.7324C216.728 28.7324 218.127 28.9973 219.414 29.5273C220.7 30.0572 221.81 30.789 222.743 31.7227C223.702 32.6312 224.446 33.7163 224.975 34.9781C225.531 36.2147 225.808 37.5395 225.808 38.9527C225.808 40.3659 225.531 41.7033 224.975 42.9651C224.446 44.2017 223.702 45.2868 222.743 46.2205C221.81 47.129 220.7 47.8482 219.414 48.3781C218.127 48.908 216.728 49.1731 215.214 49.1731ZM215.214 44.6306C215.92 44.6306 216.576 44.4919 217.182 44.2143C217.812 43.9367 218.354 43.5581 218.808 43.0787C219.288 42.5739 219.653 41.9809 219.906 41.2996C220.183 40.5931 220.321 39.8106 220.321 38.9527C220.321 38.0947 220.183 37.325 219.906 36.6436C219.653 35.9371 219.288 35.3441 218.808 34.8646C218.354 34.3598 217.812 33.9687 217.182 33.6912C216.576 33.4135 215.92 33.2747 215.214 33.2747C214.508 33.2747 213.84 33.4135 213.209 33.6912C212.604 33.9687 212.061 34.3598 211.582 34.8646C211.127 35.3441 210.763 35.9371 210.484 36.6436C210.233 37.325 210.106 38.0947 210.106 38.9527C210.106 39.8106 210.233 40.5931 210.484 41.2996C210.763 41.9809 211.127 42.5739 211.582 43.0787C212.061 43.5581 212.604 43.9367 213.209 44.2143C213.84 44.4919 214.508 44.6306 215.214 44.6306ZM229.794 34.2211H227.335V29.6787H229.794V22.1081H247.387V29.6787H252.836V34.2211H247.387V44.0629H253.063V48.6052H242.09V34.2211H235.091V48.6052H229.794V34.2211ZM242.09 29.6787V26.6504H235.091V29.6787H242.09Z" fill="#030712"/>
</svg>
