<svg width="50" height="50" viewBox="0 0 50 50" fill="none" xmlns="http://www.w3.org/2000/svg">
<path d="M25 4.16666C13.5 4.16666 4.16667 13.5 4.16667 25C4.16667 36.5 13.5 45.8333 25 45.8333C36.5 45.8333 45.8333 36.5 45.8333 25C45.8333 13.5 36.5 4.16666 25 4.16666ZM34.6667 18.3333C34.3542 21.625 33 29.625 32.3125 33.3125C32.0208 34.875 31.4375 35.3958 30.8958 35.4583C29.6875 35.5625 28.7708 34.6667 27.6042 33.8958C25.7708 32.6875 24.7292 31.9375 22.9583 30.7708C20.8958 29.4167 22.2292 28.6667 23.4167 27.4583C23.7292 27.1458 29.0625 22.2917 29.1667 21.8542C29.1811 21.7879 29.1792 21.7191 29.1611 21.6537C29.1429 21.5884 29.1091 21.5285 29.0625 21.4792C28.9375 21.375 28.7708 21.4167 28.625 21.4375C28.4375 21.4792 25.5208 23.4167 19.8333 27.25C19 27.8125 18.25 28.1042 17.5833 28.0833C16.8333 28.0625 15.4167 27.6667 14.3542 27.3125C13.0417 26.8958 12.0208 26.6667 12.1042 25.9375C12.1458 25.5625 12.6667 25.1875 13.6458 24.7917C19.7292 22.1458 23.7708 20.3958 25.7917 19.5625C31.5833 17.1458 32.7708 16.7292 33.5625 16.7292C33.7292 16.7292 34.125 16.7708 34.375 16.9792C34.5833 17.1458 34.6458 17.375 34.6667 17.5417C34.6458 17.6667 34.6875 18.0417 34.6667 18.3333Z" fill="black"/>
</svg>
