<svg width="200" height="200" viewBox="0 0 200 200" fill="none" xmlns="http://www.w3.org/2000/svg">
<g clip-path="url(#clip0_1_57)">
<path d="M96.425 95.9417H0C0.00326691 101.66 1.13428 107.321 3.32828 112.601C5.52229 117.882 8.7362 122.677 12.786 126.714C16.8359 130.751 21.6421 133.949 26.9296 136.126C32.2171 138.303 37.882 139.415 43.6 139.4H61.35V156.542C61.35 168.065 65.9263 179.116 74.0728 187.265C82.2192 195.415 93.2687 199.996 104.792 200V104.317C104.792 102.095 103.909 99.9653 102.339 98.3946C100.768 96.824 98.6378 95.9417 96.4167 95.9417H96.425ZM144.117 47.975H47.8C47.8022 59.4994 52.3818 70.5511 60.5316 78.6993C68.6814 86.8475 79.7339 91.425 91.2583 91.425H109V108.575C109.009 120.097 113.591 131.145 121.739 139.292C129.887 147.439 140.936 152.018 152.458 152.025V56.3167C152.458 54.1043 151.579 51.9826 150.015 50.4182C148.451 48.8539 146.329 47.975 144.117 47.975ZM191.775 0H95.4583C95.4583 11.5259 100.037 22.5797 108.187 30.7297C116.337 38.8797 127.391 43.4583 138.917 43.4583H156.658V60.6C156.667 72.0999 161.234 83.1275 169.357 91.267C177.481 99.4064 188.5 103.994 200 104.025V8.375C200.009 6.17695 199.15 4.06419 197.61 2.49594C196.07 0.927693 193.973 0.0307238 191.775 0Z" fill="white"/>
</g>
<defs>
<clipPath id="clip0_1_57">
<rect width="200" height="200" fill="white"/>
</clipPath>
</defs>
</svg>
